# MagicaVoxel @ Ephtracy

# group
o 

# material
mtllib grass.mtl
usemtl palette

# normals
vn -1 0 0
vn 1 0 0
vn 0 0 1
vn 0 0 -1
vn 0 -1 0
vn 0 1 0

# texcoords
vt 0.888672 0.5
vt 0.892578 0.5
vt 0.900391 0.5
vt 0.904297 0.5

# verts
v -0.4 0 0.2
v -0.4 0 0.1
v -0.4 0 0
v -0.4 0 -0.1
v -0.4 0 -0.2
v -0.4 0 -0.3
v -0.4 0.1 0.2
v -0.4 0.1 0.1
v -0.4 0.1 0
v -0.4 0.1 -0.1
v -0.4 0.1 -0.2
v -0.4 0.1 -0.3
v -0.3 0 0.3
v -0.3 0 0.2
v -0.3 0 -0.3
v -0.3 0 -0.4
v -0.3 0.1 0.2
v -0.3 0.1 0.1
v -0.3 0.1 0
v -0.3 0.1 -0.1
v -0.3 0.1 -0.2
v -0.3 0.1 -0.3
v -0.3 0.1 -0.4
v -0.3 0.2 0.3
v -0.3 0.2 0.2
v -0.3 0.2 0.1
v -0.3 0.2 -0.2
v -0.3 0.2 -0.3
v -0.3 0.2 -0.4
v -0.3 0.3 0.3
v -0.3 0.3 0.2
v -0.3 0.3 0
v -0.3 0.3 -0.1
v -0.3 0.3 -0.3
v -0.3 0.3 -0.4
v -0.3 0.4 0.3
v -0.3 0.4 0.2
v -0.3 0.4 0
v -0.3 0.4 -0.1
v -0.3 0.4 -0.3
v -0.3 0.4 -0.4
v -0.2 0 0.4
v -0.2 0 0.3
v -0.2 0 -0.4
v -0.2 0 -0.5
v -0.2 0.1 0.4
v -0.2 0.1 0.3
v -0.2 0.1 -0.4
v -0.2 0.1 -0.5
v -0.1 0.1 0.1
v -0.1 0.1 0
v -0.1 0.1 -0.1
v -0.1 0.1 -0.2
v -0.1 0.2 0.1
v -0.1 0.2 0
v -0.1 0.2 -0.1
v -0.1 0.2 -0.2
v -0.1 0.3 0.1
v -0.1 0.3 0
v -0.1 0.3 -0.1
v -0.1 0.3 -0.2
v -0.1 0.4 0.1
v -0.1 0.4 0
v -0.1 0.4 -0.1
v -0.1 0.4 -0.2
v 0 0.1 0.3
v 0 0.1 0.2
v 0 0.1 -0.3
v 0 0.1 -0.4
v 0 0.2 -0.3
v 0 0.2 -0.4
v 0 0.3 0.3
v 0 0.3 0.2
v 0 0.4 0.3
v 0 0.4 0.2
v 0 0.4 -0.3
v 0 0.4 -0.4
v 0.1 0.1 0.1
v 0.1 0.1 0
v 0.1 0.1 -0.1
v 0.1 0.1 -0.2
v 0.1 0.2 0.1
v 0.1 0.2 0
v 0.1 0.3 0.1
v 0.1 0.3 0
v 0.1 0.3 -0.1
v 0.1 0.3 -0.2
v 0.1 0.4 0.1
v 0.1 0.4 0
v 0.1 0.4 -0.1
v 0.1 0.4 -0.2
v 0.2 0.1 0.3
v 0.2 0.1 0.2
v 0.2 0.1 -0.3
v 0.2 0.1 -0.4
v 0.2 0.2 0.3
v 0.2 0.2 0.2
v 0.2 0.2 -0.3
v 0.2 0.2 -0.4
v 0.3 0.1 0.2
v 0.3 0.1 0.1
v 0.3 0.1 0
v 0.3 0.1 -0.1
v 0.3 0.1 -0.2
v 0.3 0.1 -0.3
v 0.3 0.2 0.3
v 0.3 0.2 0.2
v 0.3 0.2 0.1
v 0.3 0.2 -0.2
v 0.3 0.2 -0.3
v 0.3 0.2 -0.4
v 0.3 0.3 0.3
v 0.3 0.3 0.2
v 0.3 0.3 0
v 0.3 0.3 -0.1
v 0.3 0.4 0.3
v 0.3 0.4 0.2
v 0.3 0.4 0
v 0.3 0.4 -0.1
v 0.3 0.4 -0.3
v 0.3 0.4 -0.4
v -0.2 0.1 0.2
v -0.2 0.1 0.1
v -0.2 0.1 0
v -0.2 0.1 -0.1
v -0.2 0.1 -0.2
v -0.2 0.1 -0.3
v -0.2 0.2 0.3
v -0.2 0.2 0.2
v -0.2 0.2 0.1
v -0.2 0.2 -0.2
v -0.2 0.2 -0.3
v -0.2 0.2 -0.4
v -0.2 0.3 0.3
v -0.2 0.3 0.2
v -0.2 0.3 0
v -0.2 0.3 -0.1
v -0.2 0.3 -0.3
v -0.2 0.3 -0.4
v -0.2 0.4 0.3
v -0.2 0.4 0.2
v -0.2 0.4 0
v -0.2 0.4 -0.1
v -0.2 0.4 -0.3
v -0.2 0.4 -0.4
v -0.1 0.1 0.3
v -0.1 0.1 0.2
v -0.1 0.1 -0.3
v -0.1 0.1 -0.4
v -0.1 0.2 0.3
v -0.1 0.2 0.2
v -0.1 0.2 -0.3
v -0.1 0.2 -0.4
v 0 0.1 0.1
v 0 0.1 0
v 0 0.1 -0.1
v 0 0.1 -0.2
v 0 0.2 0.1
v 0 0.2 0
v 0 0.2 -0.1
v 0 0.2 -0.2
v 0 0.3 0.1
v 0 0.3 0
v 0 0.3 -0.1
v 0 0.3 -0.2
v 0 0.4 0.1
v 0 0.4 0
v 0 0.4 -0.1
v 0 0.4 -0.2
v 0.1 0.1 0.3
v 0.1 0.1 0.2
v 0.1 0.1 -0.3
v 0.1 0.1 -0.4
v 0.1 0.2 -0.3
v 0.1 0.2 -0.4
v 0.1 0.3 0.3
v 0.1 0.3 0.2
v 0.1 0.4 0.3
v 0.1 0.4 0.2
v 0.1 0.4 -0.3
v 0.1 0.4 -0.4
v 0.2 0.1 0.1
v 0.2 0.1 0
v 0.2 0.1 -0.1
v 0.2 0.1 -0.2
v 0.2 0.2 0.1
v 0.2 0.2 0
v 0.2 0.3 0.1
v 0.2 0.3 0
v 0.2 0.3 -0.1
v 0.2 0.3 -0.2
v 0.2 0.4 0.1
v 0.2 0.4 0
v 0.2 0.4 -0.1
v 0.2 0.4 -0.2
v 0.3 0 0.4
v 0.3 0 0.3
v 0.3 0 -0.4
v 0.3 0 -0.5
v 0.3 0.1 0.4
v 0.3 0.1 0.3
v 0.3 0.1 -0.4
v 0.3 0.1 -0.5
v 0.4 0 0.3
v 0.4 0 0.2
v 0.4 0 -0.3
v 0.4 0 -0.4
v 0.4 0.1 0.3
v 0.4 0.1 0.2
v 0.4 0.1 0.1
v 0.4 0.1 0
v 0.4 0.1 -0.1
v 0.4 0.1 -0.2
v 0.4 0.1 -0.3
v 0.4 0.1 -0.4
v 0.4 0.2 0.3
v 0.4 0.2 0.2
v 0.4 0.2 0.1
v 0.4 0.2 -0.2
v 0.4 0.2 -0.3
v 0.4 0.3 0.3
v 0.4 0.3 0.2
v 0.4 0.3 0
v 0.4 0.3 -0.1
v 0.4 0.4 0.3
v 0.4 0.4 0.2
v 0.4 0.4 0
v 0.4 0.4 -0.1
v 0.4 0.4 -0.3
v 0.4 0.4 -0.4
v 0.5 0 0.2
v 0.5 0 -0.3
v 0.5 0.1 0.2
v 0.5 0.1 -0.3
v -0.2 0 0.4
v -0.2 0.1 0.4
v -0.1 0 0.4
v -0.1 0.1 0.4
v 0 0 0.4
v 0 0.1 0.4
v 0.1 0 0.4
v 0.1 0.1 0.4
v 0.2 0 0.4
v 0.2 0.1 0.4
v 0.3 0 0.4
v 0.3 0.1 0.4
v -0.3 0 0.3
v -0.3 0.2 0.3
v -0.3 0.3 0.3
v -0.3 0.4 0.3
v -0.2 0 0.3
v -0.2 0.1 0.3
v -0.2 0.2 0.3
v -0.2 0.3 0.3
v -0.2 0.4 0.3
v -0.1 0.1 0.3
v -0.1 0.2 0.3
v 0 0.1 0.3
v 0 0.3 0.3
v 0 0.4 0.3
v 0.1 0.1 0.3
v 0.1 0.3 0.3
v 0.1 0.4 0.3
v 0.2 0.1 0.3
v 0.2 0.2 0.3
v 0.3 0 0.3
v 0.3 0.1 0.3
v 0.3 0.2 0.3
v 0.3 0.3 0.3
v 0.3 0.4 0.3
v 0.4 0 0.3
v 0.4 0.1 0.3
v 0.4 0.2 0.3
v 0.4 0.3 0.3
v 0.4 0.4 0.3
v -0.4 0 0.2
v -0.4 0.1 0.2
v -0.3 0 0.2
v -0.3 0.1 0.2
v 0.4 0 0.2
v 0.4 0.1 0.2
v 0.5 0 0.2
v 0.5 0.1 0.2
v -0.1 0.1 0.1
v -0.1 0.2 0.1
v -0.1 0.3 0.1
v -0.1 0.4 0.1
v 0 0.1 0.1
v 0 0.2 0.1
v 0 0.3 0.1
v 0 0.4 0.1
v 0.1 0.1 0.1
v 0.1 0.2 0.1
v 0.1 0.3 0.1
v 0.1 0.4 0.1
v 0.2 0.1 0.1
v 0.2 0.2 0.1
v 0.2 0.3 0.1
v 0.2 0.4 0.1
v -0.3 0.1 0
v -0.3 0.3 0
v -0.3 0.4 0
v -0.2 0.1 0
v -0.2 0.3 0
v -0.2 0.4 0
v 0.3 0.1 0
v 0.3 0.3 0
v 0.3 0.4 0
v 0.4 0.1 0
v 0.4 0.3 0
v 0.4 0.4 0
v -0.1 0.1 -0.1
v -0.1 0.2 -0.1
v -0.1 0.3 -0.1
v -0.1 0.4 -0.1
v 0 0.1 -0.1
v 0 0.2 -0.1
v 0 0.3 -0.1
v 0 0.4 -0.1
v 0.1 0.1 -0.1
v 0.1 0.3 -0.1
v 0.1 0.4 -0.1
v 0.2 0.1 -0.1
v 0.2 0.3 -0.1
v 0.2 0.4 -0.1
v -0.3 0.1 -0.2
v -0.3 0.2 -0.2
v -0.2 0.1 -0.2
v -0.2 0.2 -0.2
v 0.3 0.1 -0.2
v 0.3 0.2 -0.2
v 0.4 0.1 -0.2
v 0.4 0.2 -0.2
v -0.3 0.2 -0.3
v -0.3 0.3 -0.3
v -0.3 0.4 -0.3
v -0.2 0.1 -0.3
v -0.2 0.2 -0.3
v -0.2 0.3 -0.3
v -0.2 0.4 -0.3
v -0.1 0.1 -0.3
v -0.1 0.2 -0.3
v 0 0.1 -0.3
v 0 0.2 -0.3
v 0 0.4 -0.3
v 0.1 0.1 -0.3
v 0.1 0.2 -0.3
v 0.1 0.4 -0.3
v 0.2 0.1 -0.3
v 0.2 0.2 -0.3
v 0.3 0.1 -0.3
v 0.3 0.2 -0.3
v 0.3 0.4 -0.3
v 0.4 0.2 -0.3
v 0.4 0.4 -0.3
v -0.3 0.2 0.2
v -0.3 0.3 0.2
v -0.3 0.4 0.2
v -0.2 0.1 0.2
v -0.2 0.2 0.2
v -0.2 0.3 0.2
v -0.2 0.4 0.2
v -0.1 0.1 0.2
v -0.1 0.2 0.2
v 0 0.1 0.2
v 0 0.3 0.2
v 0 0.4 0.2
v 0.1 0.1 0.2
v 0.1 0.3 0.2
v 0.1 0.4 0.2
v 0.2 0.1 0.2
v 0.2 0.2 0.2
v 0.3 0.1 0.2
v 0.3 0.2 0.2
v 0.3 0.3 0.2
v 0.3 0.4 0.2
v 0.4 0.2 0.2
v 0.4 0.3 0.2
v 0.4 0.4 0.2
v -0.3 0.1 0.1
v -0.3 0.2 0.1
v -0.2 0.1 0.1
v -0.2 0.2 0.1
v 0.3 0.1 0.1
v 0.3 0.2 0.1
v 0.4 0.1 0.1
v 0.4 0.2 0.1
v -0.1 0.1 0
v -0.1 0.2 0
v -0.1 0.3 0
v -0.1 0.4 0
v 0 0.1 0
v 0 0.2 0
v 0 0.3 0
v 0 0.4 0
v 0.1 0.1 0
v 0.1 0.2 0
v 0.1 0.3 0
v 0.1 0.4 0
v 0.2 0.1 0
v 0.2 0.2 0
v 0.2 0.3 0
v 0.2 0.4 0
v -0.3 0.1 -0.1
v -0.3 0.3 -0.1
v -0.3 0.4 -0.1
v -0.2 0.1 -0.1
v -0.2 0.3 -0.1
v -0.2 0.4 -0.1
v 0.3 0.1 -0.1
v 0.3 0.3 -0.1
v 0.3 0.4 -0.1
v 0.4 0.1 -0.1
v 0.4 0.3 -0.1
v 0.4 0.4 -0.1
v -0.1 0.1 -0.2
v -0.1 0.2 -0.2
v -0.1 0.3 -0.2
v -0.1 0.4 -0.2
v 0 0.1 -0.2
v 0 0.2 -0.2
v 0 0.3 -0.2
v 0 0.4 -0.2
v 0.1 0.1 -0.2
v 0.1 0.3 -0.2
v 0.1 0.4 -0.2
v 0.2 0.1 -0.2
v 0.2 0.3 -0.2
v 0.2 0.4 -0.2
v -0.4 0 -0.3
v -0.4 0.1 -0.3
v -0.3 0 -0.3
v -0.3 0.1 -0.3
v 0.4 0 -0.3
v 0.4 0.1 -0.3
v 0.5 0 -0.3
v 0.5 0.1 -0.3
v -0.3 0 -0.4
v -0.3 0.1 -0.4
v -0.3 0.2 -0.4
v -0.3 0.3 -0.4
v -0.3 0.4 -0.4
v -0.2 0 -0.4
v -0.2 0.1 -0.4
v -0.2 0.2 -0.4
v -0.2 0.3 -0.4
v -0.2 0.4 -0.4
v -0.1 0.1 -0.4
v -0.1 0.2 -0.4
v 0 0.1 -0.4
v 0 0.2 -0.4
v 0 0.4 -0.4
v 0.1 0.1 -0.4
v 0.1 0.2 -0.4
v 0.1 0.4 -0.4
v 0.2 0.1 -0.4
v 0.2 0.2 -0.4
v 0.3 0 -0.4
v 0.3 0.1 -0.4
v 0.3 0.2 -0.4
v 0.3 0.4 -0.4
v 0.4 0 -0.4
v 0.4 0.1 -0.4
v 0.4 0.4 -0.4
v -0.2 0 -0.5
v -0.2 0.1 -0.5
v -0.1 0 -0.5
v -0.1 0.1 -0.5
v 0.1 0 -0.5
v 0.1 0.1 -0.5
v 0.3 0 -0.5
v 0.3 0.1 -0.5
v -0.2 0 0.4
v -0.1 0 0.4
v 0 0 0.4
v 0.1 0 0.4
v 0.2 0 0.4
v 0.3 0 0.4
v -0.3 0 0.3
v -0.2 0 0.3
v -0.1 0 0.3
v 0 0 0.3
v 0.1 0 0.3
v 0.2 0 0.3
v 0.3 0 0.3
v 0.4 0 0.3
v -0.4 0 0.2
v -0.3 0 0.2
v 0.4 0 0.2
v 0.5 0 0.2
v -0.4 0 0.1
v -0.3 0 0.1
v -0.2 0 0.1
v -0.4 0 0
v -0.3 0 0
v -0.2 0 0
v -0.4 0 -0.1
v -0.3 0 -0.1
v -0.2 0 -0.1
v -0.4 0 -0.2
v -0.3 0 -0.2
v -0.2 0 -0.2
v -0.4 0 -0.3
v -0.3 0 -0.3
v 0.4 0 -0.3
v 0.5 0 -0.3
v -0.3 0 -0.4
v -0.2 0 -0.4
v -0.1 0 -0.4
v 0.1 0 -0.4
v 0.3 0 -0.4
v 0.4 0 -0.4
v -0.2 0 -0.5
v -0.1 0 -0.5
v 0.1 0 -0.5
v 0.3 0 -0.5
v -0.2 0.1 0.4
v -0.1 0.1 0.4
v 0 0.1 0.4
v 0.1 0.1 0.4
v 0.2 0.1 0.4
v 0.3 0.1 0.4
v -0.2 0.1 0.3
v -0.1 0.1 0.3
v 0 0.1 0.3
v 0.1 0.1 0.3
v 0.2 0.1 0.3
v 0.3 0.1 0.3
v -0.4 0.1 0.2
v -0.3 0.1 0.2
v -0.2 0.1 0.2
v -0.1 0.1 0.2
v 0 0.1 0.2
v 0.1 0.1 0.2
v 0.2 0.1 0.2
v 0.3 0.1 0.2
v 0.4 0.1 0.2
v 0.5 0.1 0.2
v -0.4 0.1 0.1
v -0.3 0.1 0.1
v -0.2 0.1 0.1
v -0.1 0.1 0.1
v 0 0.1 0.1
v 0.1 0.1 0.1
v 0.2 0.1 0.1
v 0.3 0.1 0.1
v 0.4 0.1 0.1
v -0.4 0.1 0
v -0.3 0.1 0
v -0.2 0.1 0
v -0.1 0.1 0
v 0 0.1 0
v 0.1 0.1 0
v 0.2 0.1 0
v 0.3 0.1 0
v 0.4 0.1 0
v -0.4 0.1 -0.1
v -0.3 0.1 -0.1
v -0.2 0.1 -0.1
v -0.1 0.1 -0.1
v 0 0.1 -0.1
v 0.1 0.1 -0.1
v 0.2 0.1 -0.1
v 0.3 0.1 -0.1
v 0.4 0.1 -0.1
v -0.4 0.1 -0.2
v -0.3 0.1 -0.2
v -0.2 0.1 -0.2
v -0.1 0.1 -0.2
v 0 0.1 -0.2
v 0.1 0.1 -0.2
v 0.2 0.1 -0.2
v 0.3 0.1 -0.2
v 0.4 0.1 -0.2
v -0.4 0.1 -0.3
v -0.3 0.1 -0.3
v -0.2 0.1 -0.3
v -0.1 0.1 -0.3
v 0 0.1 -0.3
v 0.1 0.1 -0.3
v 0.2 0.1 -0.3
v 0.3 0.1 -0.3
v 0.4 0.1 -0.3
v 0.5 0.1 -0.3
v -0.2 0.1 -0.4
v -0.1 0.1 -0.4
v 0 0.1 -0.4
v 0.1 0.1 -0.4
v 0.2 0.1 -0.4
v 0.3 0.1 -0.4
v -0.2 0.1 -0.5
v -0.1 0.1 -0.5
v 0.1 0.1 -0.5
v 0.3 0.1 -0.5
v -0.2 0.2 0.3
v -0.1 0.2 0.3
v 0.2 0.2 0.3
v 0.3 0.2 0.3
v -0.3 0.2 0.2
v -0.2 0.2 0.2
v -0.1 0.2 0.2
v 0.2 0.2 0.2
v 0.3 0.2 0.2
v 0.4 0.2 0.2
v -0.3 0.2 0.1
v -0.2 0.2 0.1
v 0.3 0.2 0.1
v 0.4 0.2 0.1
v -0.3 0.2 -0.2
v -0.2 0.2 -0.2
v 0.3 0.2 -0.2
v 0.4 0.2 -0.2
v -0.3 0.2 -0.3
v -0.2 0.2 -0.3
v -0.1 0.2 -0.3
v 0.2 0.2 -0.3
v 0.3 0.2 -0.3
v 0.4 0.2 -0.3
v -0.2 0.2 -0.4
v -0.1 0.2 -0.4
v 0.2 0.2 -0.4
v 0.3 0.2 -0.4
v -0.3 0.4 0.3
v -0.2 0.4 0.3
v 0 0.4 0.3
v 0.1 0.4 0.3
v 0.3 0.4 0.3
v 0.4 0.4 0.3
v -0.3 0.4 0.2
v -0.2 0.4 0.2
v 0 0.4 0.2
v 0.1 0.4 0.2
v 0.3 0.4 0.2
v 0.4 0.4 0.2
v -0.1 0.4 0.1
v 0 0.4 0.1
v 0.1 0.4 0.1
v 0.2 0.4 0.1
v -0.3 0.4 0
v -0.2 0.4 0
v -0.1 0.4 0
v 0 0.4 0
v 0.1 0.4 0
v 0.2 0.4 0
v 0.3 0.4 0
v 0.4 0.4 0
v -0.3 0.4 -0.1
v -0.2 0.4 -0.1
v -0.1 0.4 -0.1
v 0 0.4 -0.1
v 0.1 0.4 -0.1
v 0.2 0.4 -0.1
v 0.3 0.4 -0.1
v 0.4 0.4 -0.1
v -0.1 0.4 -0.2
v 0 0.4 -0.2
v 0.1 0.4 -0.2
v 0.2 0.4 -0.2
v -0.3 0.4 -0.3
v -0.2 0.4 -0.3
v 0 0.4 -0.3
v 0.1 0.4 -0.3
v 0.3 0.4 -0.3
v 0.4 0.4 -0.3
v -0.3 0.4 -0.4
v -0.2 0.4 -0.4
v 0 0.4 -0.4
v 0.1 0.4 -0.4
v 0.3 0.4 -0.4
v 0.4 0.4 -0.4

# faces
f 7/3/1 2/3/1 1/3/1
f 8/1/1 3/1/1 2/1/1
f 8/3/1 2/3/1 7/3/1
f 9/2/1 4/2/1 3/2/1
f 9/1/1 3/1/1 8/1/1
f 10/1/1 5/1/1 4/1/1
f 10/2/1 4/2/1 9/2/1
f 11/3/1 6/3/1 5/3/1
f 11/1/1 5/1/1 10/1/1
f 12/3/1 6/3/1 11/3/1
f 17/4/1 14/4/1 13/4/1
f 22/4/1 16/4/1 15/4/1
f 23/4/1 16/4/1 22/4/1
f 24/4/1 17/4/1 13/4/1
f 25/3/1 18/3/1 17/3/1
f 25/4/1 17/4/1 24/4/1
f 26/3/1 18/3/1 25/3/1
f 27/3/1 22/3/1 21/3/1
f 27/3/1 23/3/1 22/3/1
f 28/3/1 23/3/1 27/3/1
f 29/3/1 23/3/1 28/3/1
f 30/3/1 25/3/1 24/3/1
f 31/3/1 25/3/1 30/3/1
f 32/1/1 20/1/1 19/1/1
f 33/1/1 20/1/1 32/1/1
f 34/1/1 29/1/1 28/1/1
f 35/1/1 29/1/1 34/1/1
f 36/2/1 31/2/1 30/2/1
f 37/2/1 31/2/1 36/2/1
f 38/2/1 33/2/1 32/2/1
f 39/2/1 33/2/1 38/2/1
f 40/4/1 35/4/1 34/4/1
f 41/4/1 35/4/1 40/4/1
f 46/3/1 43/3/1 42/3/1
f 47/3/1 43/3/1 46/3/1
f 48/3/1 45/3/1 44/3/1
f 49/3/1 45/3/1 48/3/1
f 54/3/1 51/3/1 50/3/1
f 55/3/1 51/3/1 54/3/1
f 56/3/1 53/3/1 52/3/1
f 57/3/1 53/3/1 56/3/1
f 58/2/1 55/2/1 54/2/1
f 59/2/1 55/2/1 58/2/1
f 60/2/1 57/2/1 56/2/1
f 61/2/1 57/2/1 60/2/1
f 62/4/1 59/4/1 58/4/1
f 63/4/1 59/4/1 62/4/1
f 64/4/1 61/4/1 60/4/1
f 65/4/1 61/4/1 64/4/1
f 70/3/1 69/3/1 68/3/1
f 71/3/1 69/3/1 70/3/1
f 72/2/1 67/2/1 66/2/1
f 73/2/1 67/2/1 72/2/1
f 74/4/1 73/4/1 72/4/1
f 75/4/1 73/4/1 74/4/1
f 76/1/1 71/1/1 70/1/1
f 77/1/1 71/1/1 76/1/1
f 82/3/1 79/3/1 78/3/1
f 83/3/1 79/3/1 82/3/1
f 84/4/1 83/4/1 82/4/1
f 85/4/1 83/4/1 84/4/1
f 86/3/1 81/3/1 80/3/1
f 87/3/1 81/3/1 86/3/1
f 88/2/1 85/2/1 84/2/1
f 89/2/1 85/2/1 88/2/1
f 90/2/1 87/2/1 86/2/1
f 91/2/1 87/2/1 90/2/1
f 96/3/1 93/3/1 92/3/1
f 97/3/1 93/3/1 96/3/1
f 98/2/1 95/2/1 94/2/1
f 99/2/1 95/2/1 98/2/1
f 107/3/1 101/3/1 100/3/1
f 108/3/1 101/3/1 107/3/1
f 109/3/1 105/3/1 104/3/1
f 110/3/1 105/3/1 109/3/1
f 112/2/1 107/2/1 106/2/1
f 113/2/1 107/2/1 112/2/1
f 114/3/1 103/3/1 102/3/1
f 115/3/1 103/3/1 114/3/1
f 116/3/1 113/3/1 112/3/1
f 117/3/1 113/3/1 116/3/1
f 118/4/1 115/4/1 114/4/1
f 119/4/1 115/4/1 118/4/1
f 120/3/1 111/3/1 110/3/1
f 121/3/1 111/3/1 120/3/1
f 122/3/2 123/3/2 129/3/2
f 129/3/2 123/3/2 130/3/2
f 126/3/2 127/3/2 131/3/2
f 131/3/2 127/3/2 132/3/2
f 128/3/2 129/3/2 134/3/2
f 134/3/2 129/3/2 135/3/2
f 124/1/2 125/1/2 136/1/2
f 136/1/2 125/1/2 137/1/2
f 132/1/2 133/1/2 138/1/2
f 138/1/2 133/1/2 139/1/2
f 134/2/2 135/2/2 140/2/2
f 140/2/2 135/2/2 141/2/2
f 136/2/2 137/2/2 142/2/2
f 142/2/2 137/2/2 143/2/2
f 138/4/2 139/4/2 144/4/2
f 144/4/2 139/4/2 145/4/2
f 146/3/2 147/3/2 150/3/2
f 150/3/2 147/3/2 151/3/2
f 148/3/2 149/3/2 152/3/2
f 152/3/2 149/3/2 153/3/2
f 154/3/2 155/3/2 158/3/2
f 158/3/2 155/3/2 159/3/2
f 156/3/2 157/3/2 160/3/2
f 160/3/2 157/3/2 161/3/2
f 158/2/2 159/2/2 162/2/2
f 162/2/2 159/2/2 163/2/2
f 160/2/2 161/2/2 164/2/2
f 164/2/2 161/2/2 165/2/2
f 162/4/2 163/4/2 166/4/2
f 166/4/2 163/4/2 167/4/2
f 164/4/2 165/4/2 168/4/2
f 168/4/2 165/4/2 169/4/2
f 172/3/2 173/3/2 174/3/2
f 174/3/2 173/3/2 175/3/2
f 170/2/2 171/2/2 176/2/2
f 176/2/2 171/2/2 177/2/2
f 176/4/2 177/4/2 178/4/2
f 178/4/2 177/4/2 179/4/2
f 174/1/2 175/1/2 180/1/2
f 180/1/2 175/1/2 181/1/2
f 182/3/2 183/3/2 186/3/2
f 186/3/2 183/3/2 187/3/2
f 186/4/2 187/4/2 188/4/2
f 188/4/2 187/4/2 189/4/2
f 184/3/2 185/3/2 190/3/2
f 190/3/2 185/3/2 191/3/2
f 188/2/2 189/2/2 192/2/2
f 192/2/2 189/2/2 193/2/2
f 190/2/2 191/2/2 194/2/2
f 194/2/2 191/2/2 195/2/2
f 196/3/2 197/3/2 200/3/2
f 200/3/2 197/3/2 201/3/2
f 198/3/2 199/3/2 202/3/2
f 202/3/2 199/3/2 203/3/2
f 204/4/2 205/4/2 208/4/2
f 208/4/2 205/4/2 209/4/2
f 206/4/2 207/4/2 214/4/2
f 214/4/2 207/4/2 215/4/2
f 208/3/2 209/3/2 216/3/2
f 209/3/2 210/3/2 216/3/2
f 216/3/2 210/3/2 217/3/2
f 217/3/2 210/3/2 218/3/2
f 214/3/2 215/3/2 219/3/2
f 213/3/2 214/3/2 219/3/2
f 219/3/2 215/3/2 220/3/2
f 216/2/2 217/2/2 221/2/2
f 221/2/2 217/2/2 222/2/2
f 211/3/2 212/3/2 223/3/2
f 223/3/2 212/3/2 224/3/2
f 221/3/2 222/3/2 225/3/2
f 225/3/2 222/3/2 226/3/2
f 223/4/2 224/4/2 227/4/2
f 227/4/2 224/4/2 228/4/2
f 220/3/2 215/3/2 229/3/2
f 229/3/2 215/3/2 230/3/2
f 231/3/2 232/3/2 233/3/2
f 233/3/2 232/3/2 234/3/2
f 237/3/3 236/3/3 235/3/3
f 238/3/3 236/3/3 237/3/3
f 239/2/3 238/2/3 237/2/3
f 240/2/3 238/2/3 239/2/3
f 241/1/3 240/1/3 239/1/3
f 242/1/3 240/1/3 241/1/3
f 243/4/3 242/4/3 241/4/3
f 244/4/3 242/4/3 243/4/3
f 245/3/3 244/3/3 243/3/3
f 246/3/3 244/3/3 245/3/3
f 251/4/3 248/4/3 247/4/3
f 252/4/3 248/4/3 251/4/3
f 253/3/3 249/3/3 248/3/3
f 253/4/3 248/4/3 252/4/3
f 254/2/3 250/2/3 249/2/3
f 254/3/3 249/3/3 253/3/3
f 255/2/3 250/2/3 254/2/3
f 256/3/3 253/3/3 252/3/3
f 257/3/3 253/3/3 256/3/3
f 261/2/3 259/2/3 258/2/3
f 262/4/3 260/4/3 259/4/3
f 262/2/3 259/2/3 261/2/3
f 263/4/3 260/4/3 262/4/3
f 267/3/3 265/3/3 264/3/3
f 268/3/3 265/3/3 267/3/3
f 271/4/3 267/4/3 266/4/3
f 272/3/3 268/3/3 267/3/3
f 272/4/3 267/4/3 271/4/3
f 273/2/3 269/2/3 268/2/3
f 273/3/3 268/3/3 272/3/3
f 274/3/3 270/3/3 269/3/3
f 274/2/3 269/2/3 273/2/3
f 275/3/3 270/3/3 274/3/3
f 278/3/3 277/3/3 276/3/3
f 279/3/3 277/3/3 278/3/3
f 282/3/3 281/3/3 280/3/3
f 283/3/3 281/3/3 282/3/3
f 288/3/3 285/3/3 284/3/3
f 289/2/3 286/2/3 285/2/3
f 289/3/3 285/3/3 288/3/3
f 290/4/3 287/4/3 286/4/3
f 290/2/3 286/2/3 289/2/3
f 291/4/3 287/4/3 290/4/3
f 296/3/3 293/3/3 292/3/3
f 297/4/3 294/4/3 293/4/3
f 297/3/3 293/3/3 296/3/3
f 298/2/3 295/2/3 294/2/3
f 298/4/3 294/4/3 297/4/3
f 299/2/3 295/2/3 298/2/3
f 303/1/3 301/1/3 300/1/3
f 304/2/3 302/2/3 301/2/3
f 304/1/3 301/1/3 303/1/3
f 305/2/3 302/2/3 304/2/3
f 309/3/3 307/3/3 306/3/3
f 310/4/3 308/4/3 307/4/3
f 310/3/3 307/3/3 309/3/3
f 311/4/3 308/4/3 310/4/3
f 316/3/3 313/3/3 312/3/3
f 317/2/3 314/2/3 313/2/3
f 317/3/3 313/3/3 316/3/3
f 318/4/3 315/4/3 314/4/3
f 318/2/3 314/2/3 317/2/3
f 319/4/3 315/4/3 318/4/3
f 323/3/3 321/3/3 320/3/3
f 324/2/3 322/2/3 321/2/3
f 324/3/3 321/3/3 323/3/3
f 325/2/3 322/2/3 324/2/3
f 328/3/3 327/3/3 326/3/3
f 329/3/3 327/3/3 328/3/3
f 332/3/3 331/3/3 330/3/3
f 333/3/3 331/3/3 332/3/3
f 338/1/3 335/1/3 334/1/3
f 339/4/3 336/4/3 335/4/3
f 339/1/3 335/1/3 338/1/3
f 340/4/3 336/4/3 339/4/3
f 341/3/3 338/3/3 337/3/3
f 342/3/3 338/3/3 341/3/3
f 346/3/3 344/3/3 343/3/3
f 347/1/3 345/1/3 344/1/3
f 347/3/3 344/3/3 346/3/3
f 348/1/3 345/1/3 347/1/3
f 351/2/3 350/2/3 349/2/3
f 352/2/3 350/2/3 351/2/3
f 354/3/3 353/3/3 352/3/3
f 355/3/3 353/3/3 354/3/3
f 356/3/4 357/3/4 360/3/4
f 357/2/4 358/2/4 361/2/4
f 360/3/4 357/3/4 361/3/4
f 361/2/4 358/2/4 362/2/4
f 359/3/4 360/3/4 363/3/4
f 363/3/4 360/3/4 364/3/4
f 365/2/4 366/2/4 368/2/4
f 366/4/4 367/4/4 369/4/4
f 368/2/4 366/2/4 369/2/4
f 369/4/4 367/4/4 370/4/4
f 371/3/4 372/3/4 373/3/4
f 373/3/4 372/3/4 374/3/4
f 374/2/4 375/2/4 377/2/4
f 375/3/4 376/3/4 378/3/4
f 377/2/4 375/2/4 378/2/4
f 378/3/4 376/3/4 379/3/4
f 380/3/4 381/3/4 382/3/4
f 382/3/4 381/3/4 383/3/4
f 384/3/4 385/3/4 386/3/4
f 386/3/4 385/3/4 387/3/4
f 388/3/4 389/3/4 392/3/4
f 389/2/4 390/2/4 393/2/4
f 392/3/4 389/3/4 393/3/4
f 390/4/4 391/4/4 394/4/4
f 393/2/4 390/2/4 394/2/4
f 394/4/4 391/4/4 395/4/4
f 396/3/4 397/3/4 400/3/4
f 397/4/4 398/4/4 401/4/4
f 400/3/4 397/3/4 401/3/4
f 398/2/4 399/2/4 402/2/4
f 401/4/4 398/4/4 402/4/4
f 402/2/4 399/2/4 403/2/4
f 404/1/4 405/1/4 407/1/4
f 405/2/4 406/2/4 408/2/4
f 407/1/4 405/1/4 408/1/4
f 408/2/4 406/2/4 409/2/4
f 410/3/4 411/3/4 413/3/4
f 411/4/4 412/4/4 414/4/4
f 413/3/4 411/3/4 414/3/4
f 414/4/4 412/4/4 415/4/4
f 416/3/4 417/3/4 420/3/4
f 417/2/4 418/2/4 421/2/4
f 420/3/4 417/3/4 421/3/4
f 418/4/4 419/4/4 422/4/4
f 421/2/4 418/2/4 422/2/4
f 422/4/4 419/4/4 423/4/4
f 424/3/4 425/3/4 427/3/4
f 425/2/4 426/2/4 428/2/4
f 427/3/4 425/3/4 428/3/4
f 428/2/4 426/2/4 429/2/4
f 430/3/4 431/3/4 432/3/4
f 432/3/4 431/3/4 433/3/4
f 434/3/4 435/3/4 436/3/4
f 436/3/4 435/3/4 437/3/4
f 438/4/4 439/4/4 443/4/4
f 439/3/4 440/3/4 444/3/4
f 443/4/4 439/4/4 444/4/4
f 440/1/4 441/1/4 445/1/4
f 444/3/4 440/3/4 445/3/4
f 441/4/4 442/4/4 446/4/4
f 445/1/4 441/1/4 446/1/4
f 446/4/4 442/4/4 447/4/4
f 444/3/4 445/3/4 448/3/4
f 448/3/4 445/3/4 449/3/4
f 450/3/4 451/3/4 453/3/4
f 451/1/4 452/1/4 454/1/4
f 453/3/4 451/3/4 454/3/4
f 454/1/4 452/1/4 455/1/4
f 456/2/4 457/2/4 459/2/4
f 459/2/4 457/2/4 460/2/4
f 458/4/4 459/4/4 462/4/4
f 460/3/4 461/3/4 463/3/4
f 462/4/4 459/4/4 463/4/4
f 459/3/4 460/3/4 463/3/4
f 463/3/4 461/3/4 464/3/4
f 465/3/4 466/3/4 467/3/4
f 467/3/4 466/3/4 468/3/4
f 467/2/4 468/2/4 469/2/4
f 469/2/4 468/2/4 470/2/4
f 469/3/4 470/3/4 471/3/4
f 471/3/4 470/3/4 472/3/4
f 480/3/5 474/3/5 473/3/5
f 481/2/5 475/2/5 474/2/5
f 481/3/5 474/3/5 480/3/5
f 482/1/5 476/1/5 475/1/5
f 482/2/5 475/2/5 481/2/5
f 483/4/5 477/4/5 476/4/5
f 483/1/5 476/1/5 482/1/5
f 484/3/5 478/3/5 477/3/5
f 484/4/5 477/4/5 483/4/5
f 485/3/5 478/3/5 484/3/5
f 488/4/5 483/4/5 482/4/5
f 488/4/5 486/4/5 485/4/5
f 488/4/5 485/4/5 484/4/5
f 488/4/5 484/4/5 483/4/5
f 488/4/5 480/4/5 479/4/5
f 488/4/5 482/4/5 481/4/5
f 488/4/5 481/4/5 480/4/5
f 489/4/5 486/4/5 488/4/5
f 491/3/5 488/3/5 487/3/5
f 492/4/5 489/4/5 488/4/5
f 492/3/5 488/3/5 491/3/5
f 493/4/5 489/4/5 492/4/5
f 494/1/5 492/1/5 491/1/5
f 494/1/5 493/1/5 492/1/5
f 495/1/5 493/1/5 494/1/5
f 496/4/5 489/4/5 493/4/5
f 496/1/5 493/1/5 495/1/5
f 497/2/5 495/2/5 494/2/5
f 498/4/5 496/4/5 495/4/5
f 498/2/5 495/2/5 497/2/5
f 499/4/5 489/4/5 496/4/5
f 499/4/5 496/4/5 498/4/5
f 500/1/5 498/1/5 497/1/5
f 501/2/5 499/2/5 498/2/5
f 501/1/5 498/1/5 500/1/5
f 502/4/5 489/4/5 499/4/5
f 502/2/5 499/2/5 501/2/5
f 503/3/5 501/3/5 500/3/5
f 504/4/5 502/4/5 501/4/5
f 504/3/5 501/3/5 503/3/5
f 505/3/5 490/3/5 489/3/5
f 505/4/5 502/4/5 504/4/5
f 505/4/5 489/4/5 502/4/5
f 506/3/5 490/3/5 505/3/5
f 507/4/5 505/4/5 504/4/5
f 508/4/5 505/4/5 507/4/5
f 509/4/5 505/4/5 508/4/5
f 510/4/5 505/4/5 509/4/5
f 511/4/5 505/4/5 510/4/5
f 512/4/5 505/4/5 511/4/5
f 513/3/5 509/3/5 508/3/5
f 514/2/5 510/2/5 509/2/5
f 514/3/5 509/3/5 513/3/5
f 515/3/5 511/3/5 510/3/5
f 515/2/5 510/2/5 514/2/5
f 516/3/5 511/3/5 515/3/5
f 517/3/6 518/3/6 523/3/6
f 518/2/6 519/2/6 524/2/6
f 523/3/6 518/3/6 524/3/6
f 519/1/6 520/1/6 525/1/6
f 524/2/6 519/2/6 525/2/6
f 520/4/6 521/4/6 526/4/6
f 525/1/6 520/1/6 526/1/6
f 521/3/6 522/3/6 527/3/6
f 526/4/6 521/4/6 527/4/6
f 527/3/6 522/3/6 528/3/6
f 524/4/6 525/4/6 532/4/6
f 532/4/6 525/4/6 533/4/6
f 526/4/6 527/4/6 534/4/6
f 534/4/6 527/4/6 535/4/6
f 529/3/6 530/3/6 539/3/6
f 539/3/6 530/3/6 540/3/6
f 535/4/6 536/4/6 541/4/6
f 532/4/6 533/4/6 541/4/6
f 531/4/6 532/4/6 541/4/6
f 534/4/6 535/4/6 541/4/6
f 533/4/6 534/4/6 541/4/6
f 541/4/6 536/4/6 542/4/6
f 542/4/6 536/4/6 543/4/6
f 543/4/6 536/4/6 544/4/6
f 544/4/6 536/4/6 545/4/6
f 545/4/6 536/4/6 546/4/6
f 537/3/6 538/3/6 547/3/6
f 539/1/6 540/1/6 548/1/6
f 540/1/6 541/1/6 548/1/6
f 548/1/6 541/1/6 549/1/6
f 541/4/6 542/4/6 550/4/6
f 549/1/6 541/1/6 550/1/6
f 550/4/6 542/4/6 551/4/6
f 543/4/6 544/4/6 552/4/6
f 552/4/6 544/4/6 553/4/6
f 546/4/6 547/4/6 554/4/6
f 545/4/6 546/4/6 554/4/6
f 554/4/6 547/4/6 555/4/6
f 547/3/6 538/3/6 556/3/6
f 555/4/6 547/4/6 556/4/6
f 548/2/6 549/2/6 557/2/6
f 557/2/6 549/2/6 558/2/6
f 552/4/6 553/4/6 559/4/6
f 551/4/6 552/4/6 559/4/6
f 554/4/6 555/4/6 559/4/6
f 550/4/6 551/4/6 559/4/6
f 553/4/6 554/4/6 559/4/6
f 559/4/6 555/4/6 560/4/6
f 560/4/6 555/4/6 561/4/6
f 561/4/6 555/4/6 562/4/6
f 562/4/6 555/4/6 563/4/6
f 563/4/6 555/4/6 564/4/6
f 556/3/6 538/3/6 565/3/6
f 557/1/6 558/1/6 566/1/6
f 558/2/6 559/2/6 567/2/6
f 566/1/6 558/1/6 567/1/6
f 559/4/6 560/4/6 568/4/6
f 567/2/6 559/2/6 568/2/6
f 568/4/6 560/4/6 569/4/6
f 561/4/6 562/4/6 570/4/6
f 570/4/6 562/4/6 571/4/6
f 564/4/6 565/4/6 572/4/6
f 563/4/6 564/4/6 572/4/6
f 572/4/6 565/4/6 573/4/6
f 565/3/6 538/3/6 574/3/6
f 573/4/6 565/4/6 574/4/6
f 566/3/6 567/3/6 575/3/6
f 575/3/6 567/3/6 576/3/6
f 570/4/6 571/4/6 577/4/6
f 569/4/6 570/4/6 577/4/6
f 572/4/6 573/4/6 577/4/6
f 568/4/6 569/4/6 577/4/6
f 571/4/6 572/4/6 577/4/6
f 577/4/6 573/4/6 578/4/6
f 578/4/6 573/4/6 579/4/6
f 579/4/6 573/4/6 580/4/6
f 580/4/6 573/4/6 581/4/6
f 581/4/6 573/4/6 582/4/6
f 574/3/6 538/3/6 583/3/6
f 583/3/6 538/3/6 584/3/6
f 578/4/6 579/4/6 586/4/6
f 586/4/6 579/4/6 587/4/6
f 580/4/6 581/4/6 588/4/6
f 588/4/6 581/4/6 589/4/6
f 585/3/6 586/3/6 591/3/6
f 586/2/6 587/2/6 592/2/6
f 591/3/6 586/3/6 592/3/6
f 587/2/6 588/2/6 592/2/6
f 589/3/6 590/3/6 593/3/6
f 592/2/6 588/2/6 593/2/6
f 588/3/6 589/3/6 593/3/6
f 593/3/6 590/3/6 594/3/6
f 595/3/6 596/3/6 600/3/6
f 600/3/6 596/3/6 601/3/6
f 597/3/6 598/3/6 602/3/6
f 602/3/6 598/3/6 603/3/6
f 599/3/6 600/3/6 605/3/6
f 605/3/6 600/3/6 606/3/6
f 603/3/6 604/3/6 607/3/6
f 607/3/6 604/3/6 608/3/6
f 609/3/6 610/3/6 613/3/6
f 613/3/6 610/3/6 614/3/6
f 611/3/6 612/3/6 617/3/6
f 617/3/6 612/3/6 618/3/6
f 614/3/6 615/3/6 619/3/6
f 619/3/6 615/3/6 620/3/6
f 616/2/6 617/2/6 621/2/6
f 621/2/6 617/2/6 622/2/6
f 623/2/6 624/2/6 629/2/6
f 629/2/6 624/2/6 630/2/6
f 625/4/6 626/4/6 631/4/6
f 631/4/6 626/4/6 632/4/6
f 627/3/6 628/3/6 633/3/6
f 633/3/6 628/3/6 634/3/6
f 635/4/6 636/4/6 641/4/6
f 641/4/6 636/4/6 642/4/6
f 637/2/6 638/2/6 643/2/6
f 643/2/6 638/2/6 644/2/6
f 639/2/6 640/2/6 647/2/6
f 647/2/6 640/2/6 648/2/6
f 645/4/6 646/4/6 653/4/6
f 653/4/6 646/4/6 654/4/6
f 649/4/6 650/4/6 655/4/6
f 655/4/6 650/4/6 656/4/6
f 651/2/6 652/2/6 657/2/6
f 657/2/6 652/2/6 658/2/6
f 659/4/6 660/4/6 665/4/6
f 665/4/6 660/4/6 666/4/6
f 661/1/6 662/1/6 667/1/6
f 667/1/6 662/1/6 668/1/6
f 663/3/6 664/3/6 669/3/6
f 669/3/6 664/3/6 670/3/6
